#N canvas 1045 513 450 300 10;
#X obj 177 70 bang;
#X obj 281 65 fiddle~;
#X obj 282 92 env~;
#X obj 284 131 dbtorms;
#X obj 168 28 bng 15 250 50 0 empty empty empty 17 7 0 10 -262144 -1
-1;
#X obj 180 116 dynamicTW;
#X floatatom 290 166 5 0 0 0 - - -, f 5;
#X obj 277 27 adc~ 1;
#X obj 365 98 r \$0-tick;
#X obj 363 135 f;
#X floatatom 363 168 5 0 0 0 - - -, f 5;
#X obj 363 187 dbtorms;
#X floatatom 363 209 5 0 0 0 - - -, f 5;
#X connect 0 0 5 0;
#X connect 1 2 2 0;
#X connect 2 0 3 0;
#X connect 2 0 9 1;
#X connect 3 0 6 0;
#X connect 4 0 0 0;
#X connect 6 0 5 1;
#X connect 7 0 1 0;
#X connect 8 0 9 0;
#X connect 9 0 10 0;
#X connect 10 0 11 0;
#X connect 11 0 12 0;
